<svg aria-hidden="true" style="width:0;height:0;position:absolute;overflow:hidden" xmlns="http://www.w3.org/2000/svg"><defs><symbol id="icon-youtube" viewBox="0 0 32 32"><path d="M29.384 5.513C28.517 4.862 26.104 4 15.992 4 5.155 4 3.547 4.991 3.032 5.316.284 7.036.023 14.648 0 16.192c.033 2.039.349 8.821 3.029 10.499C3.544 27.015 5.142 28 15.992 28c10.12 0 12.529-.859 13.392-1.507 2.34-1.755 2.609-7.799 2.616-10.328-.007-2.035-.211-8.847-2.616-10.653zm-1.167 19.291c-.348.261-2.347 1.113-12.227 1.113-9.549 0-11.553-.773-11.932-1.011-.964-.603-1.981-3.803-2.061-8.72.08-4.908 1.111-8.491 2.064-9.085.379-.24 2.391-1.019 11.931-1.019 9.869 0 11.875.859 12.225 1.12.856.643 1.771 4.025 1.785 8.969-.013 5.021-.936 7.995-1.787 8.632zm-5.712-9.623-8.987-5.749a.963.963 0 0 0-1.012-.012l.004-.002a1.023 1.023 0 0 0-.369.376l-.003.005a1.058 1.058 0 0 0-.136.524v11.502c0 .276.105.541.293.736a.967.967 0 0 0 1.227.154l-.004.002 8.987-5.752c.292-.19.483-.515.483-.885v-.016c0-.369-.19-.693-.477-.881l-.004-.002zM14 19.98v-7.813l6.057 3.907-6.056 3.907z"/></symbol><symbol id="icon-instagram" viewBox="0 0 32 32"><path d="M9.953 1.421c1.564-.072 2.063-.088 6.047-.088s4.483.017 6.045.088c1.563.071 2.629.32 3.563.681a7.218 7.218 0 0 1 2.597 1.693 7.158 7.158 0 0 1 1.691 2.596c.363.933.611 2 .683 3.56.072 1.567.088 2.065.088 6.048 0 3.984-.017 4.483-.088 6.047-.071 1.56-.32 2.627-.683 3.56a7.234 7.234 0 0 1-1.69 2.598l-.001.001a7.187 7.187 0 0 1-2.597 1.691c-.933.363-2 .611-3.56.683-1.565.072-2.064.088-6.048.088s-4.483-.017-6.047-.088c-1.56-.071-2.627-.32-3.56-.683a7.234 7.234 0 0 1-2.598-1.69l-.001-.001a7.196 7.196 0 0 1-1.675-2.548l-.017-.049c-.361-.933-.609-2-.681-3.56-.072-1.567-.088-2.065-.088-6.048 0-3.984.017-4.483.088-6.045s.32-2.629.681-3.563a7.243 7.243 0 0 1 1.692-2.596l.001-.001A7.192 7.192 0 0 1 6.342 2.12l.049-.017c.933-.361 2-.609 3.56-.681h.001zm11.974 2.64C20.38 3.99 19.916 3.976 16 3.976s-4.38.015-5.927.085c-1.431.065-2.207.304-2.724.505a4.57 4.57 0 0 0-1.687 1.096 4.553 4.553 0 0 0-1.086 1.655l-.01.031c-.201.517-.44 1.293-.505 2.724-.071 1.547-.085 2.011-.085 5.927s.015 4.38.085 5.927c.065 1.431.304 2.207.505 2.724a4.56 4.56 0 0 0 1.096 1.687 4.551 4.551 0 0 0 1.687 1.096c.517.201 1.293.44 2.724.505 1.547.071 2.009.085 5.927.085s4.38-.015 5.927-.085c1.431-.065 2.207-.304 2.724-.505a4.57 4.57 0 0 0 1.687-1.096 4.551 4.551 0 0 0 1.096-1.687c.201-.517.44-1.293.505-2.724.071-1.547.085-2.011.085-5.927s-.015-4.38-.085-5.927c-.065-1.431-.304-2.207-.505-2.724a4.57 4.57 0 0 0-1.096-1.687 4.566 4.566 0 0 0-1.655-1.086l-.031-.01c-.517-.201-1.293-.44-2.724-.505zm-7.8 16.46a4.893 4.893 0 1 0 3.555-9.117l-.034-.011a4.893 4.893 0 0 0-3.553 9.115l.032.012zm-3.458-9.852a7.54 7.54 0 0 1 10.662 10.662 7.54 7.54 0 0 1-10.662-10.662zm14.542-1.085a1.782 1.782 0 1 0-2.447-2.591l.001-.001a1.782 1.782 0 1 0 2.447 2.591l-.001.001z"/></symbol><symbol id="icon-twitter" viewBox="0 0 32 32"><path stroke="#fcfcfb" style="stroke:var(--color1,#fcfcfb)" stroke-linejoin="round" stroke-linecap="round" stroke-width="2.667" d="M32 5.344s-1.027 2.799-2.933 4.531c2.347 13.327-13.787 23.056-26.4 15.46 3.227.133 6.453-.8 8.8-2.667-7.333-1.997-11-9.86-7.333-15.991 3.227 3.467 8.213 5.464 13.2 5.331-1.32-5.597 5.867-8.795 10.267-5.064 1.613 0 4.4-1.6 4.4-1.6z"/></symbol><symbol id="icon-facebook" viewBox="0 0 32 32"><path d="M0 16.089C0 24.044 5.777 30.658 13.333 32V20.444h-4V16h4v-3.556c0-4 2.577-6.221 6.223-6.221 1.155 0 2.4.177 3.555.355v4.089h-2.044c-1.956 0-2.4.977-2.4 2.223v3.111h4.267l-.711 4.444h-3.556v11.556C26.223 30.66 32 24.046 32 16.09 32 7.241 24.8.001 16 .001S0 7.241 0 16.09z"/></symbol><symbol id="icon-home" viewBox="0 0 32 32"><path d="M32 18.451 16 6.031 0 18.451v-5.064L16 .967l16 12.42zM28 18v12h-8v-8h-8v8H4V18l12-9z"/></symbol></defs></svg>